<?xml version="1.0" encoding="UTF-8" standalone="no"?>
<!-- Created with Inkscape (http://www.inkscape.org/) -->

<svg
   xmlns:dc="http://purl.org/dc/elements/1.1/"
   xmlns:cc="http://creativecommons.org/ns#"
   xmlns:rdf="http://www.w3.org/1999/02/22-rdf-syntax-ns#"
   xmlns:svg="http://www.w3.org/2000/svg"
   xmlns="http://www.w3.org/2000/svg"
   xmlns:sodipodi="http://sodipodi.sourceforge.net/DTD/sodipodi-0.dtd"
   xmlns:inkscape="http://www.inkscape.org/namespaces/inkscape"
   width="744.09448819"
   height="1052.3622047"
   id="svg2"
   version="1.1"
   inkscape:version="0.48.4 r9939"
   sodipodi:docname="FloodTriangle.svg">
  <defs
     id="defs4" />
  <sodipodi:namedview
     id="base"
     pagecolor="#ffffff"
     bordercolor="#666666"
     borderopacity="1.0"
     inkscape:pageopacity="0.0"
     inkscape:pageshadow="2"
     inkscape:zoom="6.9148936"
     inkscape:cx="96.422521"
     inkscape:cy="749.67599"
     inkscape:document-units="px"
     inkscape:current-layer="layer1"
     showgrid="true"
     inkscape:snap-object-midpoints="false"
     inkscape:snap-center="false"
     inkscape:snap-grids="false"
     inkscape:object-paths="true"
     inkscape:window-width="1600"
     inkscape:window-height="837"
     inkscape:window-x="-8"
     inkscape:window-y="-8"
     inkscape:window-maximized="1">
    <inkscape:grid
       type="xygrid"
       id="grid3256" />
  </sodipodi:namedview>
  <metadata
     id="metadata7">
    <rdf:RDF>
      <cc:Work
         rdf:about="">
        <dc:format>image/svg+xml</dc:format>
        <dc:type
           rdf:resource="http://purl.org/dc/dcmitype/StillImage" />
        <dc:title></dc:title>
      </cc:Work>
    </rdf:RDF>
  </metadata>
  <g
     inkscape:label="Layer 1"
     inkscape:groupmode="layer"
     id="layer1">
    <rect
       style="fill:none;fill-opacity:1;stroke:none"
       id="rect3258-7-4"
       width="32"
       height="32"
       x="97.622093"
       y="266.86371"
       inkscape:export-filename="C:\Users\James\Documents\Dev\GitHub\userscripts\GCFloodAlert\GC_Flood_Alert_Icon64.png"
       inkscape:export-xdpi="180"
       inkscape:export-ydpi="180" />
    <path
       style="fill:#ffff00;fill-opacity:1;stroke:none"
       d="m 53.455385,259.0274 0,32 32,0 0,-32 -32,0 z m 15.46875,1.4375 c 0.158055,-0.004 0.333449,0.0642 0.65625,0.1875 1.739847,0.66445 4.712012,4.56731 9.15625,12 3.629374,6.06989 5.253915,9.26688 6.125,12.0625 0.238913,0.76676 0.274969,2.07176 0.0625,2.46875 -0.556396,1.03964 -4.369204,1.83247 -10.34375,2.15625 -3.061941,0.16593 -12.917226,0.16937 -14.6875,0 -3.059032,-0.29265 -5.131087,-0.8412 -5.75,-1.5 -0.675909,-0.71948 -0.496435,-2.30385 0.625,-5.15625 1.40451,-3.5724 6.490848,-12.93428 9.25,-17.0625 1.675628,-2.50706 3.383932,-4.44673 4.34375,-4.9375 0.271954,-0.13905 0.404445,-0.21456 0.5625,-0.21875 z m 0.0625,2.21875 c -0.813358,0.0395 -1.637739,0.80534 -2.875,2.40625 -2.79102,3.61133 -8.352334,13.92082 -9.6875,17.96875 -0.615021,1.86461 -0.669233,3.0466 -0.15625,3.59375 0.655443,0.69909 2.335344,1.15165 5.375,1.40625 1.913171,0.16024 12.577696,0.0419 14.59375,-0.15625 2.069554,-0.20342 4.567805,-0.67056 5.40625,-1.03125 0.967107,-0.41604 1.25,-0.84307 1.25,-1.8125 0,-1.82109 -1.579399,-5.31283 -5.3125,-11.6875 -3.041048,-5.19291 -4.792655,-7.74835 -6.53125,-9.5 -0.802367,-0.8084 -1.429888,-1.2182 -2.0625,-1.1875 z m 0.46875,6.4375 c 0.172112,-4.1e-4 0.348937,0.0283 0.53125,0.0625 0.764161,0.14335 1.593001,0.99486 1.71875,1.78125 0.137154,0.85772 0.489484,1.25313 1,1.125 0.231453,-0.0581 0.423671,-0.23387 0.46875,-0.40625 0.06954,-0.26592 0.154823,-0.27588 0.84375,-0.21875 0.425769,0.0353 0.825133,0.0751 0.875,0.125 0.04987,0.0499 -0.06103,0.43144 -0.25,0.8125 -0.619884,1.25001 -2.049774,1.67977 -3.25,1 -0.633971,-0.35906 -1.215018,-1.26732 -1.21875,-1.875 -0.004,-0.6552 -0.609309,-1.04571 -1.125,-0.71875 -0.105277,0.0667 -0.265731,0.40276 -0.34375,0.75 -0.207912,0.92534 -0.644691,1.53659 -1.34375,1.875 -0.763962,0.36983 -1.434855,0.36428 -2.125,0 -0.550011,-0.29058 -1.052554,-0.92777 -1.21875,-1.59375 -0.09035,-0.36206 -0.05398,-0.41192 0.53125,-0.5625 0.345394,-0.0889 0.701711,-0.1953 0.78125,-0.21875 0.07954,-0.0235 0.227657,0.16511 0.3125,0.40625 0.209352,0.59504 0.507871,0.77249 0.96875,0.5625 0.260813,-0.11883 0.39769,-0.32645 0.46875,-0.71875 0.246588,-1.36135 1.170218,-2.18461 2.375,-2.1875 z m -5.90625,6.0625 c 1.076244,-0.0304 2.181451,0.78197 2.375,2 0.11402,0.71753 0.259628,0.94564 0.625,1 0.333754,0.0497 0.59375,-0.39953 0.59375,-1.03125 0,-0.45092 0.547561,-1.24251 1.15625,-1.65625 0.407451,-0.27696 0.655772,-0.32888 1.25,-0.28125 1.149119,0.0921 1.778436,0.71948 2.125,2.09375 0.313949,1.24494 0.969786,1.18159 1.25,-0.125 0.275223,-1.28331 1.05405,-2 2.21875,-2 1.015725,0 2.018458,0.84084 2.1875,1.84375 0.145486,0.86315 0.23739,1.03125 0.4375,1.03125 0.117117,0 0.221524,0.29976 0.28125,0.75 0.05288,0.39866 0.14209,0.81916 0.1875,0.9375 0.127435,0.33209 -0.610958,0.25173 -1.28125,-0.125 -0.637093,-0.35806 -1.071412,-0.93195 -1.21875,-1.6875 -0.190819,-0.97852 -0.218072,-1.04706 -0.625,-1 -0.319922,0.037 -0.395979,0.14466 -0.5,0.625 -0.214387,0.98997 -0.404437,1.3719 -0.90625,1.8125 -0.585926,0.51445 -1.350573,0.66016 -2.09375,0.4375 -0.627914,-0.18813 -1.378861,-0.97645 -1.5,-1.5625 -0.251316,-1.21583 -0.306768,-1.25 -0.75,-1.25 -0.313673,0 -0.432627,0.0685 -0.46875,0.28125 -0.319081,1.87918 -1.412021,2.89359 -2.84375,2.625 -0.728414,-0.13665 -1.600714,-1.05605 -1.71875,-1.78125 -0.136472,-0.83846 -0.353769,-1.21875 -0.65625,-1.21875 -0.365969,0 -0.523402,0.24509 -0.625,0.90625 -0.120667,0.78526 -0.635991,1.51456 -1.28125,1.84375 -0.951643,0.48549 -1.059454,0.42607 -1,-0.53125 0.032,-0.51533 0.115946,-0.87073 0.25,-0.96875 0.118307,-0.0865 0.271056,-0.48162 0.34375,-0.875 0.151845,-0.8217 0.477598,-1.31936 1.15625,-1.78125 0.318754,-0.21694 0.672502,-0.30237 1.03125,-0.3125 z m -1.09375,6.125 c 1.349864,-0.20243 2.8125,1.00077 2.8125,2.3125 0,0.62439 0.897129,0.89976 1.34375,0.40625 0.131635,-0.14546 0.25,-0.4243 0.25,-0.625 0,-0.43065 0.474813,-1.20489 1,-1.59375 0.794057,-0.58792 2.080943,-0.58792 2.875,0 0.498178,0.36886 1.03125,1.15047 1.03125,1.53125 0,0.50265 0.390062,0.9375 0.84375,0.9375 0.499857,0 0.670533,-0.18628 0.78125,-0.90625 0.174637,-1.13561 1.262771,-2 2.5,-2 1.237229,0 2.294113,0.86439 2.46875,2 0.047,0.30567 0.171758,0.65058 0.25,0.75 0.1919,0.24386 0.687677,0.22856 1.03125,-0.0312 0.169039,-0.12786 0.624271,-0.21598 1.125,-0.21875 0.769678,-0.004 0.84375,0.008 0.84375,0.3125 0,0.44475 -0.820578,1.41154 -1.40625,1.65625 -0.701081,0.29293 -1.529108,0.22405 -2.25,-0.15625 -0.689837,-0.36391 -1.277191,-1.21453 -1.28125,-1.84375 -0.0032,-0.49371 -0.257749,-0.71875 -0.8125,-0.71875 -0.549598,0 -0.701515,0.18366 -0.8125,0.90625 -0.245055,1.59548 -2.183113,2.48076 -3.625,1.65625 -0.723972,-0.41398 -1.085287,-0.89057 -1.3125,-1.78125 l -0.1875,-0.6875 -0.625,0 c -0.62324,0 -0.611021,-0.0144 -0.78125,0.65625 -0.217737,0.85753 -0.542944,1.3637 -1.125,1.71875 -1.093392,0.66697 -2.197799,0.5522 -3.09375,-0.34375 -0.453594,-0.4536 -0.646824,-0.76895 -0.71875,-1.21875 -0.213931,-1.33785 -1.357716,-1.3599 -1.65625,-0.0312 -0.192375,0.8562 -0.599699,1.35857 -1.34375,1.71875 -0.762259,0.36901 -1.425399,0.37788 -2.1875,0.0312 -0.537004,-0.24428 -1.068638,-0.67641 -0.9375,-0.78125 0.03122,-0.025 0.360827,-0.25944 0.71875,-0.5 0.534631,-0.35931 0.70042,-0.40231 0.96875,-0.28125 0.535149,0.24143 1.01228,-0.0516 1.125,-0.71875 0.197836,-1.17098 1.011691,-1.97993 2.1875,-2.15625 z"
       id="rect3258"
       inkscape:connector-curvature="0"
       inkscape:export-filename="C:\Users\James\Desktop\WaveTriangle.png"
       inkscape:export-xdpi="90"
       inkscape:export-ydpi="90" />
    <path
       style="font-size:medium;font-style:normal;font-variant:normal;font-weight:normal;font-stretch:normal;text-indent:0;text-align:start;text-decoration:none;line-height:normal;letter-spacing:normal;word-spacing:normal;text-transform:none;direction:ltr;block-progression:tb;writing-mode:lr-tb;text-anchor:start;baseline-shift:baseline;color:#000000;fill:#ff0000;fill-opacity:1;fill-rule:nonzero;stroke:none;stroke-width:0.14233118;marker:none;visibility:visible;display:inline;overflow:visible;enable-background:accumulate;font-family:Sans;-inkscape-font-specification:Sans"
       d="m 31.53125,287 c -0.717475,0.0119 -1.579471,0.67806 -2.5,1.6875 -0.920529,1.00944 -1.903073,2.34765 -2.84375,3.78125 -1.881354,2.8672 -3.565966,6.04374 -4.21875,7.21875 -0.652799,1.17504 -2.435742,4.29448 -3.875,7.40625 -0.719629,1.55589 -1.348466,3.09151 -1.71875,4.40625 -0.370284,1.31474 -0.49398,2.38459 -0.125,3 0.368975,0.61541 1.385402,1.02054 2.71875,1.3125 1.333348,0.29196 2.977117,0.46535 4.6875,0.5625 3.420766,0.19429 6.999821,0.0847 8.34375,0.0625 1.343903,-0.0222 4.957191,-0.0373 8.375,-0.34375 1.708904,-0.15322 3.36252,-0.35194 4.6875,-0.6875 1.32498,-0.33556 2.307738,-0.77892 2.65625,-1.40625 0.348493,-0.62729 0.195237,-1.69743 -0.21875,-3 -0.413987,-1.30257 -1.103727,-2.84268 -1.875,-4.375 -1.542545,-3.06464 -3.402537,-6.1284 -4.09375,-7.28125 -0.691216,-1.15287 -2.493332,-4.22906 -4.46875,-7.03125 -0.987709,-1.4011 -2.015233,-2.74076 -2.96875,-3.71875 -0.953517,-0.97799 -1.845048,-1.60559 -2.5625,-1.59375 z m 0,0.125 c 0.627918,-0.0104 1.493242,0.594 2.4375,1.5625 0.944258,0.9685 1.98346,2.28984 2.96875,3.6875 1.970581,2.79533 3.776144,5.90731 4.46875,7.0625 0.692616,1.1552 2.554976,4.19285 4.09375,7.25 0.769387,1.52857 1.465029,3.05382 1.875,4.34375 0.409971,1.28993 0.523716,2.35731 0.21875,2.90625 -0.304948,0.54891 -1.250379,0.9802 -2.5625,1.3125 -1.312121,0.3323 -2.982771,0.56591 -4.6875,0.71875 -3.409459,0.30569 -6.996912,0.32153 -8.34375,0.34375 -1.346814,0.0222 -4.900118,0.13131 -8.3125,-0.0625 -1.706191,-0.0969 -3.398372,-0.27338 -4.71875,-0.5625 -1.320378,-0.28912 -2.270813,-0.71138 -2.59375,-1.25 -0.322932,-0.53861 -0.241689,-1.60428 0.125,-2.90625 0.366689,-1.30197 1.000883,-2.85417 1.71875,-4.40625 1.435734,-3.10415 3.220881,-6.19758 3.875,-7.375 0.654136,-1.17745 2.342,-4.32732 4.21875,-7.1875 0.938375,-1.43009 1.932158,-2.78161 2.84375,-3.78125 0.911592,-0.99964 1.747104,-1.64587 2.375,-1.65625 z m 0.0625,2.34375 c -0.613277,0.0103 -1.315901,0.56753 -2.09375,1.4375 -0.777849,0.86997 -1.611707,2.0465 -2.40625,3.28125 -1.589087,2.4695 -3.043047,5.20718 -3.59375,6.21875 -0.550703,1.01158 -2.03511,3.69382 -3.25,6.375 -0.607445,1.34059 -1.155992,2.67918 -1.46875,3.8125 -0.312758,1.13332 -0.408115,2.05869 -0.09375,2.59375 0.314361,0.53506 1.154558,0.87322 2.28125,1.125 1.126692,0.25178 2.555754,0.38488 4,0.46875 2.888492,0.16774 5.897576,0.0816 7.03125,0.0625 1.133736,-0.0191 4.178465,-0.0147 7.0625,-0.28125 1.442018,-0.13325 2.818623,-0.33482 3.9375,-0.625 1.118877,-0.29018 1.984381,-0.67344 2.28125,-1.21875 0.296862,-0.5453 0.162275,-1.47218 -0.1875,-2.59375 -0.349775,-1.12157 -0.942572,-2.43141 -1.59375,-3.75 -1.302356,-2.63719 -2.885681,-5.25759 -3.46875,-6.25 -0.583067,-0.99241 -2.115429,-3.67902 -3.78125,-6.09375 -0.83291,-1.20737 -1.695278,-2.34416 -2.5,-3.1875 -0.804722,-0.84334 -1.542972,-1.38535 -2.15625,-1.375 z m 0,0.125 c 0.521847,-0.009 1.266931,0.51 2.0625,1.34375 0.795569,0.83375 1.638205,1.98356 2.46875,3.1875 1.66109,2.40787 3.19675,5.06765 3.78125,6.0625 0.584502,0.99485 2.170064,3.62024 3.46875,6.25 0.649343,1.31488 1.21661,2.64089 1.5625,3.75 0.34589,1.10911 0.473228,2.0013 0.21875,2.46875 -0.254472,0.46743 -1.081683,0.86946 -2.1875,1.15625 -1.105817,0.28679 -2.499742,0.46089 -3.9375,0.59375 -2.875516,0.26572 -5.894737,0.29336 -7.03125,0.3125 -1.136575,0.0192 -4.151308,0.10474 -7.03125,-0.0625 -1.439971,-0.0836 -2.85525,-0.21991 -3.96875,-0.46875 -1.1135,-0.24884 -1.918077,-0.63518 -2.1875,-1.09375 -0.269419,-0.45856 -0.215542,-1.34799 0.09375,-2.46875 0.309292,-1.12076 0.863014,-2.44443 1.46875,-3.78125 1.211473,-2.67364 2.698025,-5.36108 3.25,-6.375 0.551977,-1.0139 2.009166,-3.725 3.59375,-6.1875 0.792292,-1.23125 1.605968,-2.42114 2.375,-3.28125 0.769032,-0.86011 1.478152,-1.39746 2,-1.40625 z"
       id="path2985"
       inkscape:connector-curvature="0" />
    <path
       style="font-size:medium;font-style:normal;font-variant:normal;font-weight:normal;font-stretch:normal;text-indent:0;text-align:start;text-decoration:none;line-height:normal;letter-spacing:normal;word-spacing:normal;text-transform:none;direction:ltr;block-progression:tb;writing-mode:lr-tb;text-anchor:start;baseline-shift:baseline;color:#000000;fill:#000000;fill-opacity:1;fill-rule:nonzero;stroke:none;stroke-width:0.1;marker:none;visibility:visible;display:inline;overflow:visible;enable-background:accumulate;font-family:Sans;-inkscape-font-specification:Sans"
       d="m 26.1875,301.6875 c -1.402026,0 -2.497081,1.21351 -2.5,2.59375 -7.42e-4,0.32719 -0.194115,0.5 -0.375,0.5 -0.01774,0 -0.0576,3.6e-4 -0.0625,0 l -0.03125,0 -0.03125,0.0625 -0.15625,1.96875 0,0.0312 0.0625,0.0312 c 0.0669,0.006 0.133271,0.0312 0.21875,0.0312 1.402788,0 2.496873,-1.24496 2.5,-2.625 6.91e-4,-0.32702 0.18927,-0.46875 0.375,-0.46875 0.185453,0 0.375584,0.1438 0.375,0.46875 -0.0025,1.38263 1.097276,2.625 2.5,2.625 1.402772,0 2.502168,-1.24437 2.5,-2.625 -5.25e-4,-0.31738 0.190646,-0.46875 0.375,-0.46875 0.180602,0 0.375584,0.17506 0.375,0.5 -0.0025,1.38262 1.098044,2.59375 2.5,2.59375 1.402014,0 2.496869,-1.2137 2.5,-2.59375 6.91e-4,-0.32699 0.19416,-0.5 0.375,-0.5 0.180571,0 0.375585,0.17506 0.375,0.5 -0.0025,1.38261 1.098019,2.59375 2.5,2.59375 0.131257,0 0.242813,-0.01 0.375,-0.0312 l 0.0625,-0.0312 0,-0.0312 -0.34375,-1.96875 -0.03125,-0.0625 -0.03125,0 c -7.7e-5,-10e-6 -0.01735,0 -0.03125,0 -0.185425,0 -0.37561,-0.14394 -0.375,-0.46875 0.0024,-1.38252 -1.097249,-2.625 -2.5,-2.625 -1.402801,0 -2.497081,1.24477 -2.5,2.625 -7.42e-4,0.32722 -0.189227,0.46875 -0.375,0.46875 -0.185461,0 -0.37561,-0.14389 -0.375,-0.46875 0.0024,-1.38252 -1.097274,-2.625 -2.5,-2.625 -1.402769,0 -2.502282,1.24427 -2.5,2.625 4.98e-4,0.31754 -0.190622,0.46875 -0.375,0.46875 -0.180591,0 -0.37561,-0.17517 -0.375,-0.5 0.0024,-1.38252 -1.098025,-2.59375 -2.5,-2.59375 z m 0,0.125 c 1.344941,0 2.377354,1.13875 2.375,2.46875 -6.92e-4,0.36801 0.252161,0.625 0.5,0.625 0.244042,0 0.500568,-0.23221 0.5,-0.59375 -0.0022,-1.32815 1.030869,-2.5 2.375,-2.5 1.344176,0 2.377354,1.17 2.375,2.5 -6.92e-4,0.36802 0.257025,0.59375 0.5,0.59375 0.242659,0 0.499162,-0.22405 0.5,-0.59375 0.0028,-1.32811 1.030849,-2.5 2.375,-2.5 1.344201,0 2.377354,1.17 2.375,2.5 -6.31e-4,0.33577 0.248425,0.49758 0.46875,0.53125 0.0074,0.001 -0.0075,0.0305 0,0.0312 l 0.34375,1.875 c -0.103199,0.0143 -0.207292,0.0312 -0.3125,0.0312 -1.344953,0 -2.377452,-1.13866 -2.375,-2.46875 6.63e-4,-0.3681 -0.252203,-0.625 -0.5,-0.625 -0.247528,0 -0.499219,0.25549 -0.5,0.625 -0.003,1.32795 -1.03013,2.46875 -2.375,2.46875 -1.344928,0 -2.377452,-1.13865 -2.375,-2.46875 6.62e-4,-0.3681 -0.25218,-0.625 -0.5,-0.625 -0.244062,0 -0.500597,0.23233 -0.5,0.59375 0.0021,1.32805 -1.030872,2.5 -2.375,2.5 -1.344178,0 -2.377452,-1.16991 -2.375,-2.5 6.62e-4,-0.36809 -0.257053,-0.59375 -0.5,-0.59375 -0.242676,0 -0.499219,0.22421 -0.5,0.59375 -0.003,1.32794 -1.030872,2.5 -2.375,2.5 -0.04599,0 -0.102195,-0.0216 -0.15625,-0.0312 l 0.15625,-1.84375 c 0.247511,0 0.499162,-0.25533 0.5,-0.625 0.0028,-1.32812 1.030108,-2.46875 2.375,-2.46875 z"
       id="path3200"
       inkscape:connector-curvature="0" />
    <path
       style="font-size:medium;font-style:normal;font-variant:normal;font-weight:normal;font-stretch:normal;text-indent:0;text-align:start;text-decoration:none;line-height:normal;letter-spacing:normal;word-spacing:normal;text-transform:none;direction:ltr;block-progression:tb;writing-mode:lr-tb;text-anchor:start;baseline-shift:baseline;color:#000000;fill:#ff0000;fill-opacity:1;fill-rule:nonzero;stroke:#ff0000;stroke-width:0.1;marker:none;visibility:visible;display:inline;overflow:visible;enable-background:accumulate;font-family:Sans;-inkscape-font-specification:Sans"
       d="m 32,295.59375 c -1.413135,0 -2.627553,1.14267 -2.625,2.5625 4.3e-4,0.24889 -0.194575,0.46875 -0.5,0.46875 -0.306142,0 -0.469278,-0.20842 -0.46875,-0.46875 4.14e-4,-0.21156 -0.04685,-0.40197 -0.09375,-0.59375 L 28.28125,297.5 28.25,297.5 26.3125,297.96875 26.25,298 l 0,0.0312 c 0.01121,0.046 0.0313,0.10151 0.03125,0.125 -0.0029,1.42065 1.179924,2.59375 2.59375,2.59375 1.413866,0 2.627449,-1.174 2.625,-2.59375 -4.48e-4,-0.24874 0.191472,-0.4375 0.5,-0.4375 0.154633,0 0.262365,0.0454 0.34375,0.125 0.08138,0.0796 0.125257,0.18229 0.125,0.3125 -0.0029,1.42139 1.211159,2.59375 2.625,2.59375 1.41315,0 2.621465,-1.14386 2.625,-2.5625 5.3e-5,-0.0214 -2.44e-4,-0.0602 0,-0.0625 l 0,-0.0312 -0.0625,-0.0312 -2,-0.21875 -0.03125,0 -0.03125,0.0625 c -0.01002,0.0937 1.99e-4,0.16932 0,0.25 -6.46e-4,0.25933 -0.19366,0.46875 -0.5,0.46875 -0.309265,0 -0.500521,-0.18086 -0.5,-0.4375 0.0029,-1.42058 -1.1799,-2.59375 -2.59375,-2.59375 z m 0,0.125 c 1.359122,0 2.471495,1.10319 2.46875,2.46875 -6.31e-4,0.31122 0.272219,0.5625 0.625,0.5625 0.355704,0 0.62422,-0.2808 0.625,-0.59375 1.63e-4,-0.0663 -0.0011,-0.12807 0,-0.1875 l 1.875,0.21875 c -0.0034,1.36256 -1.140194,2.4375 -2.5,2.4375 -1.359117,0 -2.502743,-1.10388 -2.5,-2.46875 3.04e-4,-0.15382 -0.05462,-0.30685 -0.15625,-0.40625 -0.101627,-0.0994 -0.261119,-0.15625 -0.4375,-0.15625 -0.353496,0 -0.625548,0.25778 -0.625,0.5625 0.0024,1.36319 -1.14094,2.46875 -2.5,2.46875 -1.359102,0 -2.471495,-1.10312 -2.46875,-2.46875 8.8e-5,-0.0455 -0.02107,-0.0651 -0.03125,-0.0937 l 1.8125,-0.4375 c 0.0414,0.17228 0.09409,0.35542 0.09375,0.53125 -6.24e-4,0.30759 0.237808,0.59375 0.59375,0.59375 0.356653,0 0.625526,-0.2889 0.625,-0.59375 -0.0025,-1.36327 1.140163,-2.4375 2.5,-2.4375 z"
       id="path3232"
       inkscape:connector-curvature="0" />
    <path
       style="font-size:medium;font-style:normal;font-variant:normal;font-weight:normal;font-stretch:normal;text-indent:0;text-align:start;text-decoration:none;line-height:normal;letter-spacing:normal;word-spacing:normal;text-transform:none;direction:ltr;block-progression:tb;writing-mode:lr-tb;text-anchor:start;baseline-shift:baseline;color:#000000;fill:#000000;fill-opacity:1;fill-rule:nonzero;stroke:none;stroke-width:0.1;marker:none;visibility:visible;display:inline;overflow:visible;enable-background:accumulate;font-family:Sans;-inkscape-font-specification:Sans"
       d="m 25.21875,307.84375 0,0.0312 c -1.396198,0.0371 -2.621395,1.10787 -2.625,2.53125 -5.46e-4,0.20492 -0.20007,0.4375 -0.59375,0.4375 -0.258158,0 -0.482786,-0.12701 -0.5625,-0.25 l -0.03125,-0.0312 -0.03125,0.0312 -1.65625,1.09375 -0.03125,0.0312 0.03125,0.0312 c 0.489337,0.75495 1.335544,1.21875 2.28125,1.21875 1.427331,0 2.714893,-1.11357 2.71875,-2.5625 5.3e-4,-0.20908 0.168833,-0.4375 0.5625,-0.4375 0.393494,0 0.594177,0.23557 0.59375,0.4375 -0.0032,1.45113 1.260232,2.5625 2.6875,2.5625 1.427302,0 2.721427,-1.11207 2.71875,-2.5625 C 31.280866,310.20823 31.448315,310 31.84375,310 c 0.396029,0 0.594177,0.20428 0.59375,0.40625 -0.0032,1.45186 1.290754,2.59375 2.71875,2.59375 1.427317,0 2.683641,-1.11431 2.6875,-2.5625 5.19e-4,-0.20476 0.200061,-0.4375 0.59375,-0.4375 0.39351,0 0.594177,0.23554 0.59375,0.4375 -0.0032,1.45113 1.260246,2.5625 2.6875,2.5625 1.069035,0 1.985488,-0.55212 2.40625,-1.53125 0.0028,-0.007 0.02846,0.007 0.03125,0 l 0.03125,0 0,-0.0312 c 0.0067,-0.015 0.02023,-0.0356 0.03125,-0.0625 l 0,-0.0312 c 0.109557,-0.27671 0.21875,-0.58995 0.21875,-0.90625 l 0,-0.0625 -0.0625,0 -2,0 -0.0625,0 0,0.0625 c 0,0.0521 0.02014,0.0797 0,0.125 l 0,0.0312 -0.03125,0 -0.03125,0 0,0.0312 c -0.03441,0.0246 -0.09935,0.0876 -0.15625,0.125 -0.113802,0.0748 -0.259394,0.125 -0.375,0.125 -0.39351,0 -0.562948,-0.23121 -0.5625,-0.4375 0.0031,-1.45179 -1.291496,-2.5625 -2.71875,-2.5625 -1.426572,0 -2.71508,1.08216 -2.71875,2.53125 -5.57e-4,0.20929 -0.171319,0.46875 -0.5625,0.46875 -0.393509,0 -0.594189,-0.23562 -0.59375,-0.4375 0.0031,-1.45179 -1.291503,-2.5625 -2.71875,-2.5625 -1.426533,0 -2.690312,1.08143 -2.6875,2.53125 3.57e-4,0.19353 -0.200842,0.4375 -0.59375,0.4375 -0.393496,0 -0.562948,-0.23121 -0.5625,-0.4375 0.0031,-1.45178 -1.291481,-2.5625 -2.71875,-2.5625 l -0.0625,0 z m 0.0625,0.125 c 1.376007,0 2.596688,1.04478 2.59375,2.4375 -5.78e-4,0.26597 0.251586,0.5625 0.6875,0.5625 0.436498,0 0.719237,-0.29833 0.71875,-0.5625 -0.0027,-1.3922 1.185801,-2.40625 2.5625,-2.40625 1.375985,0 2.596688,1.04477 2.59375,2.4375 -5.87e-4,0.27038 0.282823,0.5625 0.71875,0.5625 0.438245,0 0.686787,-0.32608 0.6875,-0.59375 C 35.847272,309.01578 37.060822,308 38.4375,308 c 1.375992,0 2.596688,1.04477 2.59375,2.4375 -5.78e-4,0.26597 0.251572,0.5625 0.6875,0.5625 0.156365,0 0.31789,-0.10887 0.4375,-0.1875 0.0598,-0.0393 0.09228,-0.0704 0.125,-0.0937 0.0082,-0.006 -0.0056,-0.0275 0,-0.0312 1.13e-4,1.3e-4 -7.2e-5,-0.0314 0,-0.0312 l 0.03125,0 0.03125,0 0.03125,0 0,-0.0312 c 0.01675,-0.0377 0.0263,-0.0866 0.03125,-0.125 l 1.90625,0 c -0.01005,0.27618 -0.05722,0.53112 -0.15625,0.78125 -0.0037,0.009 2.26e-4,0.0249 0,0.0312 -2.26e-4,0.006 -7.88e-4,0.0277 0,0.0312 3.94e-4,0.002 -0.03144,-0.001 -0.03125,0 l -0.03125,0 0,0.0312 c -0.395572,0.96864 -1.324065,1.5 -2.375,1.5 -1.375996,0 -2.565537,-1.04397 -2.5625,-2.4375 5.71e-4,-0.27044 -0.282834,-0.5625 -0.71875,-0.5625 -0.435749,0 -0.718061,0.29054 -0.71875,0.5625 -0.0037,1.39105 -1.186571,2.4375 -2.5625,2.4375 -1.375252,0 -2.596786,-1.07595 -2.59375,-2.46875 5.71e-4,-0.27043 -0.285339,-0.53125 -0.71875,-0.53125 -0.434009,0 -0.688004,0.27169 -0.6875,0.53125 0.0026,1.39135 -1.217774,2.4375 -2.59375,2.4375 -1.37601,0 -2.565537,-1.04397 -2.5625,-2.4375 5.71e-4,-0.27041 -0.282844,-0.5625 -0.71875,-0.5625 -0.435735,0 -0.686822,0.29494 -0.6875,0.5625 -0.0037,1.39033 -1.217805,2.4375 -2.59375,2.4375 -0.897653,0 -1.713303,-0.42194 -2.1875,-1.125 l 1.59375,-1.03125 c 0.112979,0.14879 0.319336,0.28125 0.59375,0.28125 0.43572,0 0.718026,-0.29044 0.71875,-0.5625 0.0035,-1.39121 1.18655,-2.4375 2.5625,-2.4375 z m 17.03125,2.6875 0,0.0312 0.0625,0 c 9.52e-4,-0.003 -1.1e-4,-0.0306 0,-0.0312 z"
       id="path3186"
       inkscape:connector-curvature="0" />
    <rect
       style="fill:#00ff00;fill-opacity:1;stroke:none"
       id="rect3258-7"
       width="32"
       height="32"
       x="59.778461"
       y="306.92218" />
    <g
       id="g2994">
      <path
         inkscape:connector-curvature="0"
         id="path2985-0"
         d="m 75.302687,308.18468 c -2.690743,0.0445 -8.20812,10.30077 -9.51504,12.65323 -1.306918,2.35246 -7.095356,12.45406 -5.711532,14.76211 1.383825,2.30805 13.012837,1.95244 15.70358,1.90803 2.690741,-0.0444 14.346445,-0.0702 15.653365,-2.42268 1.306918,-2.35246 -4.817265,-12.26578 -6.201094,-14.57383 -1.383822,-2.30806 -7.238538,-12.37128 -9.929279,-12.32686 z m 0.06277,2.47289 c 2.270249,-0.0383 7.205162,8.63243 8.372729,10.61969 1.167571,1.98726 6.337208,10.51478 5.234528,12.54027 -1.102681,2.02548 -10.935318,2.05809 -13.205567,2.09632 -2.270249,0.0383 -12.08821,0.34283 -13.255779,-1.64443 -1.167569,-1.98725 3.717603,-10.69051 4.820281,-12.71601 1.10268,-2.02547 5.763558,-10.85761 8.033808,-10.89584 z"
         style="fill:#ff0000;fill-opacity:1;stroke:#ff0000;stroke-width:0.14233118;stroke-miterlimit:4;stroke-dasharray:none" />
      <path
         inkscape:connector-curvature="0"
         id="path3200-9"
         d="m 66.938478,326.95282 c 0.04408,0.004 0.08871,0.006 0.133849,0.006 0.793828,0 1.437357,-0.69019 1.439286,-1.5414 0.0018,-0.85123 0.645457,-1.54142 1.439289,-1.54142 0.793829,0 1.437358,0.69019 1.435827,1.54158 -0.0016,0.85139 0.641994,1.54157 1.435827,1.54157 0.79383,0 1.437355,-0.69018 1.436025,-1.53712 -0.0014,-0.84692 0.642199,-1.5371 1.436028,-1.5371 0.793831,0 1.437356,0.69018 1.435826,1.54157 -0.0016,0.8514 0.641997,1.54157 1.435827,1.54157 0.793829,0 1.437357,-0.69017 1.439288,-1.5414 0.0018,-0.85121 0.645456,-1.54142 1.439286,-1.54142 0.79383,0 1.437357,0.69021 1.435825,1.5416 -0.0016,0.85137 0.641997,1.54157 1.435827,1.54157 0.07611,0 0.150838,-0.006 0.223745,-0.0182"
         style="fill:none;stroke:#ff0000;stroke-width:2;stroke-miterlimit:4;stroke-dasharray:none" />
      <path
         inkscape:connector-curvature="0"
         id="path3232-5"
         d="m 71.052226,318.93385 c 0.02793,0.11422 0.04262,0.23344 0.04238,0.35607 -0.0017,0.83855 0.694498,1.51831 1.553251,1.51831 0.858751,0 1.554905,-0.67976 1.553466,-1.51393 -0.0015,-0.83414 0.694719,-1.51393 1.553468,-1.51393 0.85875,0 1.554906,0.67979 1.553249,1.51834 -0.0017,0.83853 0.6945,1.51831 1.553251,1.51831 0.85875,0 1.554906,-0.67978 1.556995,-1.51815 1.27e-4,-0.0516 0.0028,-0.10266 0.0082,-0.15289"
         style="fill:none;stroke:#ff0000;stroke-width:2;stroke-miterlimit:4;stroke-dasharray:none" />
      <path
         sodipodi:nodetypes="cssssscscssssscccc"
         inkscape:connector-curvature="0"
         id="path3186-3"
         d="m 64.3457,332.30551 c 0.285913,0.44111 0.812628,0.73685 1.414986,0.73685 0.908169,0 1.64439,-0.67223 1.646597,-1.50129 0.0021,-0.82905 0.738425,-1.50128 1.646595,-1.50128 0.90817,0 1.64439,0.67223 1.642638,1.50144 -0.0018,0.82923 0.734465,1.50146 1.642637,1.50146 0.908171,0 1.644387,-0.67223 1.642865,-1.4971 -0.0016,-0.8249 0.734698,-1.4971 1.642867,-1.4971 0.908168,0 1.644386,0.6722 1.642635,1.50143 -0.0018,0.82923 0.734466,1.50144 1.642637,1.50144 0.908168,0 1.644386,-0.67221 1.646595,-1.50126 0.0021,-0.82907 0.738425,-1.50128 1.646597,-1.50128 0.908168,0 1.644386,0.67221 1.642635,1.50144 -0.0018,0.82923 0.734465,1.50144 1.642637,1.50144 0.68991,0 1.346146,-0.43251 1.524653,-0.93794 0.07722,-0.17406 0.119737,-0.36422 0.119737,-0.5635 l 0,0 0,0"
         style="fill:none;stroke:#ff0000;stroke-width:2;stroke-miterlimit:4;stroke-dasharray:none" />
    </g>
    <path
       style="fill:#ff0000;fill-opacity:1;stroke:#000000;stroke-width:0.01446154;stroke-miterlimit:4;stroke-dasharray:none"
       d=""
       id="path3339"
       inkscape:connector-curvature="0" />
    <g
       id="g3048"
       transform="translate(0.09901751,0.57845316)"
       inkscape:export-xdpi="180"
       inkscape:export-ydpi="180"
       inkscape:export-filename="C:\Users\James\Documents\Dev\GitHub\userscripts\GCFloodAlert\GC_Flood_Alert_Icon64.png">
      <path
         inkscape:connector-curvature="0"
         id="path2985-0-7"
         d="m 113.08641,267.60089 c -2.69074,0.0445 -8.20812,10.30077 -9.51504,12.65323 -1.30692,2.35246 -7.095357,12.45406 -5.711533,14.76211 1.383825,2.30805 13.012833,1.95244 15.703583,1.90803 2.69074,-0.0444 14.34644,-0.0702 15.65336,-2.42268 1.30692,-2.35246 -4.81726,-12.26578 -6.20109,-14.57383 -1.38382,-2.30806 -7.23854,-12.37128 -9.92928,-12.32686 z m 0.0628,2.47289 c 2.27025,-0.0383 7.20516,8.63243 8.37273,10.61969 1.16757,1.98726 6.33721,10.51478 5.23453,12.54027 -1.10268,2.02548 -10.93532,2.05809 -13.20557,2.09632 -2.27025,0.0383 -12.08821,0.34283 -13.25578,-1.64443 -1.167569,-1.98725 3.7176,-10.69051 4.82028,-12.71601 1.10268,-2.02547 5.76356,-10.85761 8.03381,-10.89584 z"
         style="fill:#0000ff;fill-opacity:1;stroke:#241c1c;stroke-width:0.14233118;stroke-miterlimit:4;stroke-dasharray:none" />
      <path
         inkscape:connector-curvature="0"
         id="path3200-9-4"
         d="m 104.7222,286.36903 c 0.0441,0.004 0.0887,0.006 0.13385,0.006 0.79383,0 1.43736,-0.69019 1.43928,-1.5414 0.002,-0.85123 0.64546,-1.54142 1.43929,-1.54142 0.79383,0 1.43736,0.69019 1.43583,1.54158 -0.002,0.85139 0.64199,1.54157 1.43583,1.54157 0.79383,0 1.43735,-0.69018 1.43602,-1.53712 -10e-4,-0.84692 0.6422,-1.5371 1.43603,-1.5371 0.79383,0 1.43736,0.69018 1.43583,1.54157 -0.002,0.8514 0.64199,1.54157 1.43582,1.54157 0.79383,0 1.43736,-0.69017 1.43929,-1.5414 0.002,-0.85121 0.64546,-1.54142 1.43929,-1.54142 0.79383,0 1.43736,0.69021 1.43582,1.5416 -0.002,0.85137 0.642,1.54157 1.43583,1.54157 0.0761,0 0.15084,-0.006 0.22374,-0.0182"
         style="fill:none;stroke:#0000ff;stroke-width:2;stroke-miterlimit:4;stroke-dasharray:none" />
      <path
         inkscape:connector-curvature="0"
         id="path3232-5-0"
         d="m 108.83595,278.35006 c 0.0279,0.11422 0.0426,0.23344 0.0424,0.35607 -0.002,0.83855 0.6945,1.51831 1.55325,1.51831 0.85875,0 1.5549,-0.67976 1.55347,-1.51393 -0.002,-0.83414 0.69471,-1.51393 1.55346,-1.51393 0.85875,0 1.55491,0.67979 1.55325,1.51834 -0.002,0.83853 0.6945,1.51831 1.55325,1.51831 0.85875,0 1.55491,-0.67978 1.557,-1.51815 1.2e-4,-0.0516 0.003,-0.10266 0.008,-0.15289"
         style="fill:none;stroke:#0000ff;stroke-width:2;stroke-miterlimit:4;stroke-dasharray:none" />
      <path
         sodipodi:nodetypes="cssssscscssssscccc"
         inkscape:connector-curvature="0"
         id="path3186-3-9"
         d="m 102.12942,291.72172 c 0.28591,0.44111 0.81263,0.73685 1.41499,0.73685 0.90817,0 1.64439,-0.67223 1.64659,-1.50129 0.002,-0.82905 0.73843,-1.50128 1.6466,-1.50128 0.90817,0 1.64439,0.67223 1.64264,1.50144 -0.002,0.82923 0.73446,1.50146 1.64263,1.50146 0.90818,0 1.64439,-0.67223 1.64287,-1.4971 -0.002,-0.8249 0.7347,-1.4971 1.64287,-1.4971 0.90816,0 1.64438,0.6722 1.64263,1.50143 -0.002,0.82923 0.73447,1.50144 1.64264,1.50144 0.90817,0 1.64438,-0.67221 1.64659,-1.50126 0.002,-0.82907 0.73843,-1.50128 1.6466,-1.50128 0.90817,0 1.64439,0.67221 1.64264,1.50144 -0.002,0.82923 0.73446,1.50144 1.64263,1.50144 0.68991,0 1.34615,-0.43251 1.52466,-0.93794 0.0772,-0.17406 0.11973,-0.36422 0.11973,-0.5635 l 0,0 0,0"
         style="fill:none;stroke:#0000ff;stroke-width:2;stroke-miterlimit:4;stroke-dasharray:none" />
    </g>
  </g>
</svg>
